<svg width="1331" height="1213" viewBox="0 0 1331 1213" fill="none" xmlns="http://www.w3.org/2000/svg">
<g clip-path="url(#clip0_49_11)">
<path fill-rule="evenodd" clip-rule="evenodd" d="M377.1 0.999988C484.124 -0.834012 593.106 67.881 636.1 126.1C638.666 125.333 640.333 123.666 642 121.1C651.666 115.334 661.334 108.666 670.1 101.1C693.7 88.516 721.671 79.151 749.1 71.1C813.178 56.052 885.576 79.764 932.1 96C1006.34 121.11 1085.33 143.233 1128.1 197.1C1176.29 257.301 1198.87 342.955 1238 410C1249.66 432.664 1261.34 455.336 1273 477.1C1295.93 511.579 1320.23 539.319 1329 589C1338.05 640.237 1305.83 708.972 1286.1 735.1C1276.34 751.295 1262.41 763.106 1254.1 782C1237.99 825.359 1258.46 871.09 1265.1 908.1C1276.65 962.543 1237.35 1025.77 1205.1 1040C1216.58 1022.11 1231.02 1008.74 1238 985.1C1251.35 942.542 1237.05 891.663 1223 860C1215.92 844.048 1204.81 833.811 1201 812.1C1193.72 773.235 1211.5 742.794 1217 710.1C1229.84 636.773 1178.36 590.88 1150.1 554.1C1150.33 555.333 1149.67 555.667 1148.1 555.1C1130.63 623.127 1059.34 688.562 1000.1 718C987.972 724.574 943.112 745.454 924.1 740C963.885 727.348 999.884 690.433 1018 655.1C1022.83 646.826 1035.1 625.926 1030 611.1C1030 612.667 1030 613.333 1030 613.1C1023.67 623.332 1017.33 632.668 1011 642C974.372 687.902 914.058 722.831 863 753.1C821.829 779.134 768.133 796.188 752.1 846.1C738.683 895.075 772.772 924.026 788.1 950.1C776.078 945.833 764.222 934.231 756 923.1C684.957 835.602 772.952 773.639 815 721C764.87 746.836 713.586 783.717 702 847.1C694.772 888.103 719.572 910.392 734 929.1C766.348 973.96 816.117 1042.96 780 1115C770.138 1134.67 755.839 1151.19 740.1 1165.1C725.959 1181.01 707.064 1199.77 685.1 1208C718.027 1165.72 769.004 1113.05 743.1 1033C738.139 1014.24 730.916 994.664 716.1 983.1C719.576 1061.94 696.276 1150.91 635 1163.1C636.333 1162.67 637.667 1161.33 638.1 1159.1C647.736 1140.76 662.975 1125.84 670 1102.1C686.38 1049.74 662.627 982.142 632 959C642.991 1033.47 612.928 1098.83 554 1109C585.06 1082.39 613.015 1046.21 599 983.1C596.433 972.605 596.362 954.595 588 948.1C566.208 938.796 546.386 934.262 528 922C503.499 905.66 486.647 881.485 464 864C520.504 952.443 494.641 1022.5 440 1091C428.996 1104.79 414.606 1124.43 397.1 1132C406.485 1120.78 427.421 1093.27 412.1 1073C412.667 1073.67 412.333 1074.33 411.1 1075C404.001 1085.67 395.999 1096.33 387.1 1106.1C358.934 1143.28 320.175 1154.73 361 1213C331.326 1207.72 309.122 1176.01 307.1 1141.1C256.331 1174.78 183.229 1192.55 145 1132C207.392 1133.31 244.011 1101.08 229.1 1035C229.667 1035 229.333 1035 228.1 1035C228.1 1035.67 228.1 1036.33 228.1 1037C215.961 1058.03 205.897 1080.13 181.1 1090C128.427 1112.12 79.629 1065.03 65 1032C73.704 1035.94 81.643 1041.03 92.1 1042.1C118.52 1047.42 163.733 1018.82 155 991C146.143 962.781 111.908 950.39 94.1 928.1C51.698 874.218 37.462 787.265 78.1 718C31.1 754.208 30.319 834.948 49.1 899C48 897.334 45.1 895.667 43.1 894C34.685 873.44 20.17 858.144 13.1 831.1C-10.857 726.68 82.309 689.141 103.1 623C57.357 648.72 -6.73199 624.522 0.100013 566C1.33301 566 1.66701 566 1.10001 566C3.04801 592.807 27.329 611.895 55.1 600C79.925 590.074 95.144 561.07 102.1 534.1C123.614 466.594 90.247 406.657 80.1 347C74.832 307.206 86.214 259.063 96 231C130.265 132.744 218.808 56.452 310.1 17C331.355 8.28999 357.105 9.34799 377.1 0.999988Z" fill="url(#paint0_linear_49_11)"/>
<path fill-rule="evenodd" clip-rule="evenodd" d="M485 224.1C498.634 224.308 520.281 224.354 524.1 232.1C526.333 242.666 527.667 252.334 528.1 261.1C392.644 369.275 364.191 833.62 594.1 857C603.45 894.472 617.421 929.057 632.1 959.1C557.042 961.134 494 908.5 464 863C464.567 863.333 464.333 862.667 463.1 863C491 897.5 509.5 962.5 483 1022C483.333 1022 480.9 1023.5 483 1022C473.063 963.306 459.858 879.965 393 880C462.205 958.214 432.227 1090.34 358.1 1139C392.017 1049.25 384.167 982.104 333.1 913C333.333 913.667 332.667 914.333 331.1 915C331.433 937.88 335.125 953.861 341 970.1C247.342 896.977 343.781 803.714 364.1 735C374.491 704.265 368.833 664.761 378.1 631C387.106 673.864 394.29 732.501 378.1 775C391.258 768.301 397.638 754.735 403.1 742C459.415 631.069 350.951 526.474 349 413.1C325.122 449.362 336.304 512.033 347.1 549.1C325.401 525.875 319.242 488.723 314 447C301.211 345.203 366.073 268.061 432 238.1C448.4 231.771 465.45 230.771 485 224.1ZM294.1 558.1C340.141 623.964 300.556 719.865 275 777C265.394 798.475 248.942 815.244 244 840.1C230.258 912.611 275.691 960.193 292.1 1006C307.647 1044.76 304.545 1093.47 274 1111.1C325.021 1014.95 205.096 956.266 217 864C223.992 809.808 246.201 786.661 263.1 748C289.568 692.464 301.328 633.731 294.1 558.1Z" fill="url(#paint1_linear_49_11)"/>
</g>
<defs>
<linearGradient id="paint0_linear_49_11" x1="665.082" y1="0.96405" x2="665.082" y2="1213" gradientUnits="userSpaceOnUse">
<stop stop-color="#E9C487"/>
<stop offset="1" stop-color="#E3A965"/>
</linearGradient>
<linearGradient id="paint1_linear_49_11" x1="424.132" y1="224.1" x2="424.132" y2="1139" gradientUnits="userSpaceOnUse">
<stop stop-color="#C79862"/>
<stop offset="1" stop-color="#AB6F48"/>
</linearGradient>
<clipPath id="clip0_49_11">
<rect width="1331" height="1213" fill="white"/>
</clipPath>
</defs>
</svg>
