<svg width="780" height="183" viewBox="0 0 780 183" fill="none" xmlns="http://www.w3.org/2000/svg">
<g clip-path="url(#clip0_49_20)">
<path fill-rule="evenodd" clip-rule="evenodd" d="M668 0.100006C696.643 0.237006 766.444 5.68801 776 20C787.295 42.666 767.321 67.862 758.1 79C731.636 115.631 672.266 153.06 600.1 139.1C568.15 133.98 542.548 123.054 521 106C507.6 95.395 498.766 72.62 469.1 77.1C448.42 82.036 442.424 107.52 431 122C421.394 134.176 406.656 145.994 393 154C341.184 184.379 231.189 155.559 193 132.1C176.815 123.439 164.39 110.054 150 99C104.373 119.168 71.096 154.121 32.1 182C21.816 182.574 12.398 182.433 3 179.1C2 178.667 0.1 177.333 0 176C5.643 158.508 49.618 132.594 64.1 121C128.613 73.051 158.204 41.202 255.1 24C274.498 20.746 299.37 18.605 319.1 21.1C357.599 28.187 391.802 32.074 423.1 42.1C440.636 48.645 459.806 64.537 483 60C498.658 56.937 509.019 48.468 521 41.1C542.331 33.334 563.669 24.666 585 15.1C602.665 12 620.335 7.10001 637.1 4.00001C647.999 3.00001 658.001 1.10001 668 0.100006Z" fill="#1B1917"/>
<path fill-rule="evenodd" clip-rule="evenodd" d="M655 30C687.249 31.654 723.486 31.082 753 39.1C752.667 41.666 752.333 43.333 752 45C715.659 95.674 633.844 149.475 559 103.1C546.8 96.587 528.766 85.098 526 71.1C548.401 57.721 573.11 43.868 602.1 36.1C620.332 34.667 637.668 32.333 655 30ZM295.1 48.1C348.478 48.084 389.809 58.695 424 76C391.044 180.076 220.285 144.559 173 77.1C197.33 66.81 226.085 58.435 255.1 52.1C269.332 51.667 282.668 50.333 295.1 48.1Z" fill="#36302B"/>
</g>
<defs>
<clipPath id="clip0_49_20">
<rect width="780" height="183" fill="white"/>
</clipPath>
</defs>
</svg>
